<svg width="14" height="14" viewBox="0 0 14 14" fill="none" xmlns="http://www.w3.org/2000/svg">
<path d="M3 9.25C4.24264 9.25 5.25 8.24264 5.25 7C5.25 5.75736 4.24264 4.75 3 4.75C1.75736 4.75 0.75 5.75736 0.75 7C0.75 8.24264 1.75736 9.25 3 9.25Z" stroke="#C4C4C4" stroke-width="1.5" stroke-linecap="round" stroke-linejoin="round"/>
<path d="M11 13.25C12.2426 13.25 13.25 12.2426 13.25 11C13.25 9.75736 12.2426 8.75 11 8.75C9.75736 8.75 8.75 9.75736 8.75 11C8.75 12.2426 9.75736 13.25 11 13.25Z" stroke="#C4C4C4" stroke-width="1.5" stroke-linecap="round" stroke-linejoin="round"/>
<path d="M11 5.25C12.2426 5.25 13.25 4.24264 13.25 3C13.25 1.75736 12.2426 0.75 11 0.75C9.75736 0.75 8.75 1.75736 8.75 3C8.75 4.24264 9.75736 5.25 11 5.25Z" stroke="#C4C4C4" stroke-width="1.5" stroke-linecap="round" stroke-linejoin="round"/>
<path d="M5 6L9 4M5 8L9 10L5 8Z" stroke="#C4C4C4" stroke-width="1.5" stroke-linecap="round" stroke-linejoin="round"/>
</svg>
